# xmcd
# 
# Track frame offsets:
#     150
#     4118
#     15444
#     32761
#     54863
#     74603
# 
# Disc length: 1173
# 
# Revision: 2
# Processed by: cddbd v1.5.2PL0 Copyright (c) Steve Scherf et al.
# Submitted via: fre:ac v1.1beta1pre4
# 
DISCID=40049306
DTITLE=Emmure - The Complete Guide to Needlework
DYEAR=2006
DGENRE=Metal
TTITLE0=Second Hand Smoke
TTITLE1=Johnny Carson Didn't Have to Die
TTITLE2=Looking a Gift Horse in the Mouth
TTITLE3=I Should Have Called Ms. Cleo
TTITLE4=Exits Away
TTITLE5=A Fist Fight With Dick Tracy
EXTD=
EXTT0=
EXTT1=
EXTT2=
EXTT3=
EXTT4=
EXTT5=
PLAYORDER=
